<svg xmlns="http://www.w3.org/2000/svg" xmlns:xlink="http://www.w3.org/1999/xlink" width="220"  viewBox="0 0 369.5483870967742 56.4516129032258" class="looka-1j8o68f"><defs id="SvgjsDefs5147"></defs><g id="SvgjsG5148" featurekey="PG4fjM-0" transform="matrix(1.129032258064516,0,0,1.129032258064516,-11.29032258064516,-11.29032258064516)" fill="#50799a"><g xmlns="http://www.w3.org/2000/svg"><g><path d="M56.5834961,33.2109375H28.8271484c-0.5522461,0-1-0.4477539-1-1V12.5273438    C27.8271484,11.1337891,28.9609375,10,30.3544922,10h24.7016602c1.3935547,0,2.5273438,1.1337891,2.5273438,2.5273438v19.6835938    C57.5834961,32.7631836,57.1357422,33.2109375,56.5834961,33.2109375z M29.8271484,31.2109375h25.7563477V12.5273438    C55.5834961,12.2363281,55.347168,12,55.0561523,12H30.3544922c-0.2910156,0-0.5273438,0.2363281-0.5273438,0.5273438V31.2109375z    "></path></g><g><path d="M55.2412109,37.0493164h-25.0625c-2.6240234,0-4.7587891-1.7099609-4.7587891-3.8115234v-1.0268555    c0-0.5522461,0.4477539-1,1-1H59c0.5522461,0,1,0.4477539,1,1v1.0268555    C60,35.3393555,57.8652344,37.0493164,55.2412109,37.0493164z M27.4199219,33.2109375v0.0268555    c0,0.9819336,1.2631836,1.8115234,2.7587891,1.8115234h25.0625C56.7368164,35.0493164,58,34.2197266,58,33.237793v-0.0268555    H27.4199219z"></path></g><g><path d="M56.5834961,33.2109375H28.8271484c-0.5522461,0-1-0.4477539-1-1V12.5273438    C27.8271484,11.1337891,28.9609375,10,30.3544922,10h24.7016602c1.3935547,0,2.5273438,1.1337891,2.5273438,2.5273438v19.6835938    C57.5834961,32.7631836,57.1357422,33.2109375,56.5834961,33.2109375z M29.8271484,31.2109375h25.7563477V12.5273438    C55.5834961,12.2363281,55.347168,12,55.0561523,12H30.3544922c-0.2910156,0-0.5273438,0.2363281-0.5273438,0.5273438V31.2109375z    "></path></g><g><path d="M55.2412109,37.0493164h-25.0625c-2.6240234,0-4.7587891-1.7099609-4.7587891-3.8115234v-1.0268555    c0-0.5522461,0.4477539-1,1-1H59c0.5522461,0,1,0.4477539,1,1v1.0268555    C60,35.3393555,57.8652344,37.0493164,55.2412109,37.0493164z M27.4199219,33.2109375v0.0268555    c0,0.9819336,1.2631836,1.8115234,2.7587891,1.8115234h25.0625C56.7368164,35.0493164,58,34.2197266,58,33.237793v-0.0268555    H27.4199219z"></path></g><g><path d="M51.5522461,60H18.4355469C13.7841797,60,10,55.7910156,10,50.6171875c0-5,3.534668-9.0991211,7.9702148-9.3686523    c0.9995117-5.8193359,5.4047852-10.3032227,10.762207-10.8120117c0.2856445-0.0249023,0.559082,0.0673828,0.7675781,0.2558594    c0.2084961,0.1894531,0.3271484,0.4580078,0.3271484,0.7397461v0.7788086c0,0.5522461-0.4477539,1-1,1l-1.4072266,0.0268555    c0,0.9819336,1.2631836,1.8115234,2.7587891,1.8115234h18.7758789c0.215332,0,0.425293,0.0698242,0.5981445,0.1987305    c2.0405273,1.5224609,3.5439453,3.7583008,4.2773438,6.3427734C57.4404297,42.6982422,60,46.3886719,60,50.6171875    C60,55.7910156,56.2104492,60,51.5522461,60z M18.4355469,43.234375C14.887207,43.234375,12,46.5463867,12,50.6171875    S14.887207,58,18.4355469,58h33.1166992C55.1074219,58,58,54.6879883,58,50.6171875    c0-3.5292969-2.1889648-6.5708008-5.2055664-7.2324219c-0.3759766-0.0825195-0.671875-0.3735352-0.7592773-0.7490234    c-0.5288086-2.2612305-1.7387695-4.2324219-3.4223633-5.5864258h-18.434082c-2.5083008,0-4.5698242-1.5625-4.746582-3.5361328    c-2.9936523,1.6459961-5.1767578,4.9433594-5.6000977,8.8554688c-0.0302734,0.2802734-0.1777344,0.534668-0.4052734,0.7006836    c-0.2280273,0.1665039-0.515625,0.2265625-0.7915039,0.1713867C18.6054688,43.234375,18.5073242,43.234375,18.4355469,43.234375z"></path></g><g><g><g><path d="M48.65625,26.3085938c-0.2558594,0-0.5112305-0.0976563-0.706543-0.2924805      c-0.390625-0.3901367-0.3911133-1.0234375-0.0009766-1.4140625l2.8618164-2.8657227L47.9492188,18.875      c-0.390625-0.390625-0.390625-1.0234375,0-1.4140625s1.0234375-0.390625,1.4140625,0l3.5678711,3.5678711      c0.390625,0.3901367,0.390625,1.0229492,0.0004883,1.4135742l-3.5678711,3.5727539      C49.168457,26.2109375,48.9125977,26.3085938,48.65625,26.3085938z"></path></g><g><path d="M36.7543945,26.3085938c-0.2563477,0-0.512207-0.0976563-0.7075195-0.293457l-3.5678711-3.5727539      c-0.3901367-0.390625-0.3901367-1.0234375,0.0004883-1.4135742l3.5678711-3.5678711      c0.390625-0.390625,1.0234375-0.390625,1.4140625,0s0.390625,1.0234375,0,1.4140625l-2.8613281,2.8613281l2.8618164,2.8657227      c0.3901367,0.390625,0.3901367,1.0239258-0.0009766,1.4140625      C37.265625,26.2109375,37.0102539,26.3085938,36.7543945,26.3085938z"></path></g></g><g><path d="M39.2397461,29.3862305c-0.1557617,0-0.3134766-0.0361328-0.4614258-0.1132813     c-0.4897461-0.2553711-0.6796875-0.8588867-0.4243164-1.3491211l7.0678711-13.5620117     c0.2558594-0.4892578,0.859375-0.6801758,1.3491211-0.4243164c0.4897461,0.2553711,0.6796875,0.8588867,0.4243164,1.3491211     l-7.0678711,13.5620117C39.9492188,29.1904297,39.6005859,29.3862305,39.2397461,29.3862305z"></path></g></g></g></g><g id="SvgjsG5149" featurekey="jxYttZ-0" transform="matrix(2.364274955207319,0,0,2.364274955207319,73.91943664147361,-6.922950022488017)" fill="#111111"><path d="M8.14 16.16 c0.04 0.12 0.38 1.1 -0.04 2.1 c-0.52 1.18 -1.9 1.94 -3.62 1.94 l-0.02 0 c-1.38 0 -2.64 -0.58 -3.58 -1.5 l1.34 -1.34 c0.56 0.72 1.36 1.08 2.24 1.08 c0.98 0 1.8 -0.36 2.02 -0.88 c0.14 -0.36 0.02 -0.74 0.02 -0.78 c-0.24 -0.6 -1.12 -0.72 -2.12 -0.94 c-1.34 -0.3 -2.68 -0.64 -3.2 -2.04 c-0.26 -0.72 -0.18 -1.56 0.18 -2.26 c0.82 -1.54 2.86 -1.6 3.1 -1.6 c1.38 0 2.68 0.52 3.6 1.46 l-1.34 1.34 c-0.56 -0.72 -1.38 -1.04 -2.26 -1.04 c-0.02 0 -1.2 0.02 -1.54 0.68 c-0.12 0.2 -0.18 0.54 -0.08 0.82 c0.2 0.56 1.1 0.74 2.06 0.96 c1.3 0.3 2.72 0.6 3.24 2 z M17.700000000000003 20 l-3.74 -4.78 l-1.08 0.92 l0 3.86 l-2.08 0 l0 -15 l2.08 0 l0 8.58 l3.98 -3.46 l3.2 0 l-4.6 3.84 l4.9 6.04 l-2.66 0 z M30.340000000000003 10.12 c0 0 -2.5 5.92 -4.16 9.88 c-1.4 3.32 -2.5 5.32 -4.36 5.32 c-0.58 0 -1.32 -0.28 -1.86 -0.6 l0.62 -1.8 c0.16 0.14 0.52 0.34 0.76 0.4 c1.54 0.44 2.5 -2.78 3.16 -4.36 l-3.74 -8.84 l2.08 0 l2.72 6.48 l2.7 -6.48 l2.08 0 z M35.74 18.36 c0.64 0.26 1.14 0.08 1.44 -0.06 l0 1.6 c-0.26 0.16 -0.64 0.3 -1.18 0.3 c-1.18 0 -2.22 -0.38 -2.86 -1.42 c-0.6 -1 -0.6 -1.54 -0.6 -3.1 l0 -3.88 l-1.2 0 l0 -1.68 l1.2 0 l0 -3.12 l2.06 0 l0 3.12 l2.58 0 l0 1.68 l-2.58 0 l0 3.88 c0 1.64 0.16 2.24 1.14 2.68 z M39.440000000000005 15.82 l0 -5.7 l2.06 0 l0 5.5 c0 2 0.62 2.88 2.32 2.88 c1.92 0 2.7 -1.34 2.7 -3.08 l0 -5.3 l2.06 0 l0 9.88 l-2.06 0 l0 -1.6 c-0.28 0.88 -1.52 1.68 -2.7 1.76 c-2.68 0.2 -4.38 -1.1 -4.38 -4.34 z M60.52000000000001 14.3 l0 5.7 l-2.06 0 l0 -5.5 c0 -2 -0.62 -2.88 -2.32 -2.88 c-1.92 0 -2.7 1.34 -2.7 3.08 l0 5.3 l-2.06 0 l0 -9.88 l2.06 0 l0 1.6 c0.28 -0.88 1.52 -1.68 2.7 -1.76 c2.68 -0.2 4.38 1.1 4.38 4.34 z M72.4 14.3 l0 5.7 l-2.06 0 l0 -5.5 c0 -2 -0.62 -2.88 -2.32 -2.88 c-1.92 0 -2.7 1.34 -2.7 3.08 l0 5.3 l-2.06 0 l0 -9.88 l2.06 0 l0 1.6 c0.28 -0.88 1.52 -1.68 2.7 -1.76 c2.68 -0.2 4.38 1.1 4.38 4.34 z M84.46000000000001 15.08 l0 0.74 l-7.78 0 c0 1.82 1.74 2.7 3.02 2.7 c0.94 0 1.98 -0.5 2.54 -1.3 l1.42 1.28 c-0.66 0.9 -1.74 1.7 -3.96 1.7 c-3.2 0 -5.16 -2.18 -5.16 -5.12 s1.9 -5.14 4.96 -5.14 s4.46 1.7 4.88 4.18 c0.06 0.32 0.08 0.64 0.08 0.96 z M76.72000000000001 14.120000000000001 l5.58 0 c0 -1.6 -1.28 -2.48 -2.8 -2.48 s-2.78 1.02 -2.78 2.48 z M88.74000000000002 4.619999999999999 l0 15.38 l-2.08 0 l0 -15.38 l2.08 0 z M94.56000000000002 18.78 c0 0.8 -0.62 1.42 -1.42 1.42 c-0.78 0 -1.4 -0.62 -1.4 -1.42 c0 -0.76 0.62 -1.38 1.4 -1.38 c0.8 0 1.42 0.62 1.42 1.38 z M102.90000000000002 10.24 l-0.44 1.62 c-0.14 -0.08 -0.58 -0.22 -0.94 -0.22 c-1.7 0 -2.5 1.62 -2.5 3.62 l0 4.74 l-2.06 0 l0 -9.88 l2.06 0 l0 1.4 c0.24 -0.92 1.3 -1.58 2.48 -1.58 c0.54 0 1.12 0.14 1.4 0.3 z M103.96000000000002 15.82 l0 -5.7 l2.06 0 l0 5.5 c0 2 0.62 2.88 2.32 2.88 c1.92 0 2.7 -1.34 2.7 -3.08 l0 -5.3 l2.06 0 l0 9.88 l-2.06 0 l0 -1.6 c-0.28 0.88 -1.52 1.68 -2.7 1.76 c-2.68 0.2 -4.38 -1.1 -4.38 -4.34 z M125.04000000000002 14.3 l0 5.7 l-2.06 0 l0 -5.5 c0 -2 -0.62 -2.88 -2.32 -2.88 c-1.92 0 -2.7 1.34 -2.7 3.08 l0 5.3 l-2.06 0 l0 -9.88 l2.06 0 l0 1.6 c0.28 -0.88 1.52 -1.68 2.7 -1.76 c2.68 -0.2 4.38 1.1 4.38 4.34 z"></path></g></svg>
